<svg width="256" height="175" viewBox="0 0 256 175" fill="none"
    xmlns="http://www.w3.org/2000/svg">
    <path d="M2 94.5C21.5 112 73.5 120.5 83.5 109.5" stroke="black" stroke-width="3"/>
    <path d="M1.5 96C21 113.5 78.5 130 88.5 119" stroke="black" stroke-width="3"/>
    <ellipse cx="104" cy="112.5" rx="29" ry="17.5" fill="#254356"/>
    <ellipse cx="104" cy="110.5" rx="24" ry="13.5" fill="#1D3342"/>
    <line x1="192.282" y1="2.67032" x2="192.282" y2="174.238" stroke="black" stroke-width="5"/>
    <rect x="151.5" y="92.2891" width="81" height="10.6881" stroke="black" stroke-width="5"/>
    <line x1="167.35" y1="89.7891" x2="167.35" y2="105.477" stroke="black" stroke-width="5"/>
    <line x1="202.572" y1="89.7891" x2="202.572" y2="105.477" stroke="black" stroke-width="5"/>
    <line x1="220.183" y1="89.7891" x2="220.183" y2="105.477" stroke="black" stroke-width="5"/>
    <line x1="184.961" y1="89.7891" x2="184.961" y2="105.477" stroke="black" stroke-width="5"/>
    <path d="M235.138 12C233 38 235.138 95.9829 190.284 101.689" stroke="black" stroke-width="3"/>
    <path d="M225.772 11.3488C225.772 38.5 217.217 86.4512 191.348 101.472" stroke="black" stroke-width="3"/>
    <path d="M209.998 12.3502C209.998 38 204 75 191.515 100.637" stroke="black" stroke-width="3"/>
    <path d="M148.914 12.6512C151.052 38.6512 148.914 96.6341 193.769 102.341" stroke="black" stroke-width="3"/>
    <path d="M158.28 12C158.28 39.1512 166.836 87.1024 192.704 102.123" stroke="black" stroke-width="3"/>
    <path d="M174.055 13.0014C174.055 38.6512 180.053 75.6512 192.537 101.288" stroke="black" stroke-width="3"/>
    <rect x="142" width="100" height="13" fill="#254356"/>
</svg>
